<svg width="86" height="83" viewBox="0 0 86 83" fill="none" xmlns="http://www.w3.org/2000/svg">
<path d="M46 80C68.0914 80 86 62.0914 86 40C86 17.9086 68.0914 0 46 0C23.9086 0 6 17.9086 6 40C6 62.0914 23.9086 80 46 80Z" fill="#F2F2F2"/>
<path d="M40 83C62.0914 83 80 65.0914 80 43C80 20.9086 62.0914 3 40 3C17.9086 3 0 20.9086 0 43C0 65.0914 17.9086 83 40 83Z" fill="#F2F2F2"/>
<path d="M39.74 67.9202C52.4733 67.9202 62.7957 57.5978 62.7957 44.8645C62.7957 32.1312 52.4733 21.8088 39.74 21.8088C27.0066 21.8088 16.6843 32.1312 16.6843 44.8645C16.6843 57.5978 27.0066 67.9202 39.74 67.9202Z" fill="#A0616A"/>
<path d="M57.7068 64.7209L48.5668 66.4709C48.5668 66.4709 57.0668 52.7508 56.5668 46.4708C56.0668 40.1908 49.2268 37.9408 49.2268 37.9408C49.2268 37.9408 45.4368 38.7608 41.4468 39.2208C40.9689 37.8753 40.3487 36.5847 39.5968 35.3709C39.4488 36.9379 38.7551 38.4032 37.6368 39.5109C36.1745 39.6364 34.7019 39.4664 33.3068 39.0109C31.7268 38.2909 31.7567 37.0409 32.2767 35.8709C27.1269 36.2959 22.1013 37.676 17.4568 39.9408C17.2268 36.8708 17.3442 33.7846 17.8068 30.7408C18.0268 30.6808 18.2467 30.6109 18.4667 30.5408C19.8297 30.1097 21.1436 29.5365 22.3868 28.8308C21.0033 28.6472 19.7106 28.0393 18.6868 27.0908C19.5268 24.6308 20.8668 22.5008 22.9768 21.4608C25.0125 20.4652 27.2384 19.9187 29.5037 19.8584C31.7691 19.798 34.0209 20.2251 36.1068 21.1108C36.1068 21.1108 31.2168 17.5408 33.0168 16.0808C33.1368 16.2008 33.2568 16.3108 33.3868 16.4208C33.5568 16.5608 33.7468 16.7108 33.9268 16.8508C35.0368 17.7508 36.6968 16.4809 36.9168 15.1209C36.9404 14.9491 36.9739 14.7788 37.0168 14.6108C37.0468 14.4708 37.0868 14.3308 37.1268 14.2008C37.1607 14.0855 37.2008 13.972 37.2468 13.8608C40.5768 13.0608 50.6468 16.3108 54.5168 23.4708C54.5168 23.4708 81.5668 36.4709 57.7068 64.7209Z" fill="#3F3D56"/>
<path opacity="0.3" d="M40 73C56.5685 73 70 59.5685 70 43C70 26.4315 56.5685 13 40 13C23.4315 13 10 26.4315 10 43C10 59.5685 23.4315 73 40 73Z" fill="#6C63FF"/>
</svg>
